HIERARCHY
ROOT Hips
{
	OFFSET 51.999100 7.814161 55.347599
	CHANNELS 6 Xposition Yposition Zposition Xrotation Yrotation Zrotation
	JOINT spine
	{
		OFFSET 0.000000 -0.393701 6.846371
		CHANNELS 3 Xrotation Yrotation Zrotation
		JOINT spine1
		{
			OFFSET 0.000000 -0.000001 9.496208
			CHANNELS 3 Xrotation Yrotation Zrotation
			JOINT spine2
			{
				OFFSET 0.000000 -0.000002 9.099091
				CHANNELS 3 Xrotation Yrotation Zrotation
				JOINT Neck
				{
					OFFSET 0.000000 -1.113784 23.361198
					CHANNELS 3 Xrotation Yrotation Zrotation
					JOINT Head
					{
						OFFSET 0.000000 -0.000001 7.058022
						CHANNELS 3 Xrotation Yrotation Zrotation
						End Site
						{
							OFFSET 0.000000 5.634187 17.084404
						}
					}
				}
				JOINT RightShoulder
				{
					OFFSET -3.831360 0.533490 9.826309
					CHANNELS 3 Xrotation Yrotation Zrotation
					JOINT RightArm
					{
						OFFSET 0.000000 -0.000002 12.888100
						CHANNELS 3 Xrotation Yrotation Zrotation
						JOINT RightArmRoll
						{
							OFFSET 0.000000 -0.000001 6.506172
							CHANNELS 3 Xrotation Yrotation Zrotation
							JOINT RightForeArm
							{
								OFFSET 0.000000 -0.000003 18.950096
								CHANNELS 3 Xrotation Yrotation Zrotation
								JOINT RightForeArmRoll
								{
									OFFSET 0.000000 -0.000001 7.300919
									CHANNELS 3 Xrotation Yrotation Zrotation
									JOINT RightHand
									{
										OFFSET 0.000000 -0.000002 14.651398
										CHANNELS 3 Xrotation Yrotation Zrotation
										End Site
										{
											OFFSET 0.000000 0.000000 0.100006
										}
									}
								}
							}
						}
					}
				}
				JOINT LeftShoulder
				{
					OFFSET 3.831360 0.533490 9.826309
					CHANNELS 3 Xrotation Yrotation Zrotation
					JOINT LeftArm
					{
						OFFSET 0.000000 -0.000002 12.888100
						CHANNELS 3 Xrotation Yrotation Zrotation
						JOINT LeftArmRoll
						{
							OFFSET 0.000000 -0.000001 6.506172
							CHANNELS 3 Xrotation Yrotation Zrotation
							JOINT LeftForeArm
							{
								OFFSET 0.000000 -0.000003 18.950096
								CHANNELS 3 Xrotation Yrotation Zrotation
								JOINT LeftForeArmRoll
								{
									OFFSET 0.000000 -0.000001 7.300919
									CHANNELS 3 Xrotation Yrotation Zrotation
									JOINT LeftHand
									{
										OFFSET 0.000000 -0.000002 14.651398
										CHANNELS 3 Xrotation Yrotation Zrotation
										End Site
										{
											OFFSET 0.000000 0.000000 0.100006
										}
									}
								}
							}
						}
					}
				}
			}
		}
	}
	JOINT RightUpLeg
	{
		OFFSET -6.068371 0.933478 -1.112782
		CHANNELS 3 Xrotation Yrotation Zrotation
		JOINT RightUpLegRoll
		{
			OFFSET 0.000000 -0.000003 17.179596
			CHANNELS 3 Xrotation Yrotation Zrotation
			JOINT RightLeg
			{
				OFFSET 0.000000 0.000003 -21.274300
				CHANNELS 3 Xrotation Yrotation Zrotation
				JOINT RightLegRoll
				{
					OFFSET 0.000000 -0.000003 21.343903
					CHANNELS 3 Xrotation Yrotation Zrotation
					JOINT RightFoot
					{
						OFFSET 0.000000 -0.000003 17.765198
						CHANNELS 3 Xrotation Yrotation Zrotation
						JOINT RightToeBase
						{
							OFFSET 0.000000 -0.000003 14.850800
							CHANNELS 3 Xrotation Yrotation Zrotation
							End Site
							{
								OFFSET 0.006294 0.829004 7.192131
							}
						}
					}
				}
			}
		}
	}
	JOINT LeftUpLeg
	{
		OFFSET 6.068371 0.933478 -1.112782
		CHANNELS 3 Xrotation Yrotation Zrotation
		JOINT LeftUpLegRoll
		{
			OFFSET 0.000000 -0.000003 17.179703
			CHANNELS 3 Xrotation Yrotation Zrotation
			JOINT LeftLeg
			{
				OFFSET 0.000000 -0.000004 21.274200
				CHANNELS 3 Xrotation Yrotation Zrotation
				JOINT LeftLegRoll
				{
					OFFSET 0.000000 -0.000004 21.541199
					CHANNELS 3 Xrotation Yrotation Zrotation
					JOINT LeftFoot
					{
						OFFSET 0.000000 -0.000003 17.567902
						CHANNELS 3 Xrotation Yrotation Zrotation
						JOINT LeftToeBase
						{
							OFFSET 0.000000 -0.000002 14.850800
							CHANNELS 3 Xrotation Yrotation Zrotation
							End Site
							{
								OFFSET -0.028210 0.829004 7.192139
							}
						}
					}
				}
			}
		}
	}
}
MOTION
Frames: 11
Frame Time: 0.041667
52.471901 -0.121743 66.350800 42.534358 -5.228757 -5.827628 0.927667 0.088125 0.358613 5.857586 0.193759 0.714452 7.502607 0.202313 0.712077 1.581067 18.318788 0.012014 17.371768 -15.531206 0.548833 -7.370848 -39.651540 -7.003001 -52.594226 -145.303996 -103.039776 -0.000004 -0.000001 -0.000001 48.067180 -11.543947 11.411726 0.000002 -0.000011 -3.006420 -5.000162 -8.000259 0.000072 -20.855677 61.959945 24.601488 106.809870 44.563849 -57.611006 0.000003 0.000000 0.000006 64.672766 19.378316 -17.192199 0.000008 -0.000002 3.000657 -5.000154 8.000163 -0.000107 -105.264000 -175.396826 -1.403136 -179.999991 0.000006 -0.511002 110.231713 -5.397381 -4.622350 -0.000004 0.000004 1.174621 71.762482 7.415847 0.467740 25.456856 -7.355619 -0.000002 -102.501892 168.557116 -1.227381 -0.000004 -0.000005 -0.339451 -76.899385 7.530585 7.963170 0.000002 -0.000001 -0.154410 81.042974 -7.713489 2.049437 25.457208 7.359669 -0.008127 
52.433300 -0.082406 66.294197 42.497679 -5.214224 -5.825908 0.931650 0.087560 0.359629 5.865545 0.192370 0.716503 7.510566 0.200960 0.714135 1.585104 18.322754 0.010343 17.381843 -15.532123 0.548739 -7.388427 -39.615370 -7.022812 -52.567277 -145.278998 -103.110913 -0.000004 -0.000001 -0.000001 48.208315 -11.420925 11.388954 0.000001 -0.000011 -3.006411 -5.000159 -8.000259 0.000073 -20.844436 61.940807 24.588674 106.760112 44.601815 -57.456364 0.000005 0.000001 0.000005 64.836322 19.215947 -17.118723 0.000007 -0.000001 3.000661 -5.000155 8.000158 -0.000107 -105.332944 -175.415883 -1.384186 -179.999991 0.000006 -0.512997 110.119295 -5.372471 -4.616250 -0.000004 0.000005 1.179699 71.768862 7.417191 0.463132 25.456856 -7.355620 -0.000002 -102.576252 168.537704 -1.248674 -0.000005 -0.000005 -0.339970 -77.015198 7.478699 7.964725 0.000003 -0.000002 -0.168189 81.047817 -7.708332 2.031468 25.457206 7.359668 -0.008126 
52.424900 -0.046233 66.230499 42.459656 -5.199377 -5.824054 0.935702 0.086895 0.360743 5.873636 0.190644 0.718761 7.518667 0.199272 0.716406 1.589793 18.325717 0.008306 17.391371 -15.531543 0.548077 -7.406478 -39.579573 -7.043292 -52.539687 -145.252688 -103.184515 -0.000003 -0.000000 -0.000003 48.345216 -11.301163 11.367290 0.000001 -0.000011 -3.006409 -5.000155 -8.000259 0.000078 -20.833064 61.922843 24.575685 106.711413 44.637977 -57.308094 0.000004 -0.000000 0.000006 64.994455 19.056226 -17.044846 0.000007 -0.000000 3.000659 -5.000157 8.000161 -0.000104 -105.399818 -175.434570 -1.364780 -179.999991 0.000006 -0.516002 110.007983 -5.348141 -4.610925 -0.000004 0.000005 1.184879 71.774722 7.418850 0.457809 25.456856 -7.355620 -0.000002 -102.649308 168.520124 -1.267485 -0.000007 -0.000005 -0.340466 -77.129583 7.425535 7.965013 -0.000000 -0.000001 -0.181909 81.051615 -7.702554 2.011079 25.457208 7.359669 -0.008126 
52.410900 -0.007310 66.167107 42.420413 -5.184248 -5.822112 0.939793 0.086153 0.361945 5.881847 0.188641 0.721203 7.526857 0.197313 0.718863 1.594931 18.327872 0.005985 17.400597 -15.529837 0.547021 -7.424966 -39.544343 -7.064428 -52.511546 -145.225108 -103.260248 -0.000003 -0.000000 -0.000003 48.478292 -11.184537 11.346777 -0.000001 -0.000010 -3.006413 -5.000158 -8.000258 0.000078 -20.821548 61.905945 24.562528 106.662946 44.672798 -57.164797 0.000004 0.000002 0.000005 65.147656 18.899051 -16.970628 0.000005 -0.000001 3.000662 -5.000157 8.000160 -0.000104 -105.464842 -175.452984 -1.344525 -179.999991 0.000006 -0.517996 109.897464 -5.323957 -4.606507 -0.000004 0.000004 1.190140 71.780316 7.420680 0.452031 25.456856 -7.355619 -0.000003 -102.721086 168.504223 -1.285003 -0.000006 -0.000005 -0.340942 -77.242643 7.371285 7.964035 0.000000 -0.000002 -0.195576 81.054415 -7.696270 1.988467 25.457204 7.359667 -0.008126 
52.390800 0.030273 66.105202 42.380040 -5.168869 -5.820037 0.943931 0.085351 0.363225 5.890111 0.186425 0.723807 7.535142 0.195145 0.721484 1.600283 18.329321 0.003468 17.409843 -15.527171 0.545670 -7.443800 -39.509383 -7.086081 -52.482631 -145.197063 -103.336910 -0.000004 -0.000001 -0.000003 48.607574 -11.070811 11.327176 0.000000 -0.000009 -3.006408 -5.000163 -8.000260 0.000074 -20.809771 61.889813 24.549052 106.615756 44.706177 -57.027541 0.000003 0.000000 0.000008 65.295980 18.744351 -16.895935 0.000006 -0.000002 3.000661 -5.000158 8.000158 -0.000110 -105.528144 -175.471139 -1.322804 -179.999991 0.000006 -0.521002 109.788024 -5.299618 -4.601005 -0.000004 0.000005 1.195459 71.785459 7.422717 0.445617 25.456854 -7.355619 -0.000002 -102.791656 168.489702 -1.301859 -0.000007 -0.000004 -0.341400 -77.354611 7.316125 7.961969 0.000004 -0.000001 -0.209195 81.056334 -7.689539 1.964123 25.457215 7.359667 -0.008126 
52.422298 0.052534 66.057198 42.338567 -5.153291 -5.817980 0.948089 0.084514 0.364573 5.898420 0.184056 0.726551 7.543466 0.192826 0.724243 1.605644 18.330279 0.000835 17.419339 -15.523710 0.544151 -7.462979 -39.475017 -7.108237 -52.453582 -145.167966 -103.415443 -0.000003 -0.000001 -0.000001 48.733454 -10.959869 11.308524 -0.000001 -0.000011 -3.006410 -5.000160 -8.000259 0.000074 -20.797769 61.874349 24.535303 106.568976 44.738494 -56.894940 0.000003 -0.000000 0.000007 65.439810 18.592062 -16.821175 0.000008 -0.000003 3.000656 -5.000157 8.000160 -0.000108 -105.589964 -175.489170 -1.302211 -179.999991 0.000005 -0.522997 109.679287 -5.275759 -4.595338 -0.000004 0.000004 1.200821 71.790226 7.424904 0.438953 25.456856 -7.355622 -0.000002 -102.861160 168.476356 -1.317149 -0.000005 -0.000005 -0.341842 -77.465567 7.260241 7.959110 0.000002 -0.000001 -0.222771 81.057434 -7.682483 1.938352 25.457208 7.359668 -0.008126 
52.393002 0.095596 65.988701 42.296278 -5.137516 -5.815879 0.952246 0.083661 0.365978 5.906752 0.181599 0.729409 7.551784 0.190420 0.727120 1.610802 18.330841 -0.001825 17.429289 -15.519638 0.542544 -7.482418 -39.441013 -7.130793 -52.424004 -145.138597 -103.494537 -0.000003 0.000000 -0.000002 48.856193 -10.851432 11.290591 -0.000001 -0.000009 -3.006409 -5.000162 -8.000257 0.000073 -20.785541 61.859432 24.521269 106.522674 44.769851 -56.766771 0.000004 0.000002 0.000005 65.579337 18.442103 -16.745930 0.000008 -0.000001 3.000660 -5.000160 8.000159 -0.000108 -105.650425 -175.507038 -1.279980 -179.999991 0.000006 -0.526002 109.571254 -5.252020 -4.590563 -0.000004 0.000005 1.206220 71.794618 7.427231 0.431935 25.456858 -7.355620 -0.000002 -102.929742 168.463788 -1.331503 -0.000006 -0.000005 -0.342269 -77.575615 7.203799 7.955344 0.000002 -0.000001 -0.236308 81.057775 -7.675160 1.911350 25.457208 7.359667 -0.008126 
52.378700 0.138737 65.910896 42.252971 -5.121613 -5.813811 0.956400 0.082812 0.367431 5.915048 0.179114 0.732360 7.560083 0.187989 0.730090 1.615524 18.331096 -0.004425 17.439928 -15.515123 0.540967 -7.502077 -39.407395 -7.153684 -52.393585 -145.109650 -103.573098 -0.000003 0.000000 -0.000001 48.976056 -10.745348 11.273311 -0.000002 -0.000008 -3.006412 -5.000159 -8.000259 0.000074 -20.772986 61.844788 24.506864 106.476932 44.800409 -56.642953 0.000005 0.000000 0.000007 65.715019 18.294356 -16.670637 0.000012 -0.000003 3.000663 -5.000157 8.000159 -0.000106 -105.709759 -175.524838 -1.258597 -179.999991 0.000005 -0.529006 109.463924 -5.228399 -4.585676 -0.000004 0.000005 1.211640 71.798607 7.429643 0.424657 25.456860 -7.355619 -0.000002 -102.997518 168.451753 -1.344186 -0.000005 -0.000005 -0.342684 -77.684796 7.147099 7.951143 0.000004 -0.000001 -0.249813 81.057468 -7.667689 1.883716 25.457213 7.359669 -0.008126 
52.373199 0.169835 65.856003 42.209056 -5.105579 -5.811905 0.960513 0.081987 0.368924 5.923292 0.176665 0.735380 7.568328 0.185593 0.733126 1.619596 18.331164 -0.006878 17.451511 -15.510537 0.539576 -7.521878 -39.374173 -7.176826 -52.363703 -145.080089 -103.653100 -0.000003 -0.000001 -0.000003 49.093310 -10.641406 11.256550 -0.000002 -0.000010 -3.006402 -5.000157 -8.000259 0.000078 -20.760042 61.830199 24.491993 106.430856 44.830493 -56.521899 0.000005 0.000001 0.000005 65.847074 18.148748 -16.595066 0.000007 -0.000002 3.000661 -5.000157 8.000163 -0.000103 -105.767979 -175.542706 -1.236539 -179.999991 0.000006 -0.531001 109.357285 -5.204897 -4.580715 -0.000004 0.000004 1.217049 71.802295 7.432100 0.417206 25.456856 -7.355619 -0.000003 -103.064501 168.440033 -1.357658 -0.000004 -0.000005 -0.343091 -77.793491 7.090153 7.946514 0.000002 -0.000001 -0.263290 81.056566 -7.660139 1.855551 25.457211 7.359668 -0.008126 
52.349899 0.205812 65.794098 42.164346 -5.089478 -5.810137 0.964591 0.081209 0.370443 5.931450 0.174312 0.738445 7.576492 0.183293 0.736209 1.622822 18.331237 -0.009104 17.464232 -15.505856 0.538396 -7.541810 -39.341333 -7.200173 -52.333347 -145.051197 -103.732159 -0.000002 0.000001 -0.000005 49.208122 -10.539421 11.240117 -0.000001 -0.000010 -3.006402 -5.000159 -8.000259 0.000075 -20.746722 61.815562 24.476688 106.386528 44.859863 -56.406130 0.000003 0.000000 0.000005 65.975734 18.005256 -16.519496 0.000005 0.000000 3.000664 -5.000156 8.000160 -0.000109 -105.825530 -175.560601 -1.214233 -179.999991 0.000006 -0.534006 109.251055 -5.181440 -4.575667 -0.000004 0.000005 1.222439 71.805451 7.434617 0.409803 25.456856 -7.355621 -0.000002 -103.130843 168.428285 -1.370404 -0.000005 -0.000005 -0.343487 -77.901545 7.033318 7.941631 0.000004 -0.000001 -0.276744 81.055166 -7.652617 1.827247 25.457211 7.359669 -0.008126 
52.344299 0.238826 65.734100 42.119133 -5.073321 -5.808546 0.968604 0.080497 0.371979 5.939492 0.172118 0.741535 7.584531 0.181151 0.739314 1.624972 18.331319 -0.011013 17.478422 -15.501437 0.537626 -7.561778 -39.308883 -7.223625 -52.302720 -145.023098 -103.810290 -0.000002 -0.000001 0.000000 49.320786 -10.439231 11.223960 0.000001 -0.000011 -3.006401 -5.000161 -8.000260 0.000076 -20.732998 61.800685 24.460921 106.342965 44.888741 -56.294283 0.000004 0.000000 0.000007 66.101314 17.863745 -16.443631 0.000010 -0.000002 3.000660 -5.000155 8.000158 -0.000103 -105.882337 -175.578673 -1.192048 -179.999991 0.000006 -0.536998 109.145508 -5.157744 -4.569585 -0.000004 0.000005 1.227800 71.808279 7.437084 0.402511 25.456858 -7.355620 -0.000003 -103.196618 168.416291 -1.383740 -0.000004 -0.000005 -0.343878 -78.009223 6.976665 7.936493 0.000002 -0.000001 -0.290180 81.053404 -7.645133 1.799317 25.457208 7.359667 -0.008127 
